<?xml version="1.0" encoding="utf-8"?>
<!-- Generator: Adobe Illustrator 21.0.2, SVG Export Plug-In . SVG Version: 6.00 Build 0)  -->
<svg version="1.1" xmlns="http://www.w3.org/2000/svg" xmlns:xlink="http://www.w3.org/1999/xlink" x="0px" y="0px"
	 viewBox="0 0 226 89" style="enable-background:new 0 0 226 89;" xml:space="preserve">
<style type="text/css">
	.st0{display:none;}
	.st1{display:inline;}
	.st2{opacity:0;clip-path:url(#SVGID_2_);fill:#FFFFFF;}
	.st3{clip-path:url(#SVGID_2_);}
	.st4{font-family:'ArialMT';}
	.st5{font-size:14px;}
	.st6{font-family:'Metropolis-Light';}
	.st7{clip-path:url(#SVGID_4_);}
	.st8{fill:#00ADBB;}
</style>
<g id="Layer_1" class="st0">
	<g class="st1">
		<defs>
			<rect id="SVGID_1_" x="70" y="-108" width="705" height="307"/>
		</defs>
		<clipPath id="SVGID_2_">
			<use xlink:href="#SVGID_1_"  style="overflow:visible;"/>
		</clipPath>
		<rect x="70" y="-108" class="st2" width="705" height="307"/>
		<g class="st3">
			<text transform="matrix(1 0 0 1 81.7 -81.0984)" class="st4" style="font-size:21px;">!</text>
		</g>
		<g class="st3">
			<text transform="matrix(1 0 0 1 95.7 -81.0984)"><tspan x="0" y="0" class="st6" style="font-size:21px;">C</tspan><tspan x="14" y="0" class="st6" style="font-size:21px;">l</tspan><tspan x="18" y="0" class="st6" style="font-size:21px;">i</tspan><tspan x="22" y="0" class="st6" style="font-size:21px;">c</tspan><tspan x="33" y="0" class="st6" style="font-size:21px;">k</tspan><tspan x="44" y="0" class="st6" style="font-size:21px; letter-spacing:1;"> </tspan><tspan x="52" y="0" class="st6" style="font-size:21px;">t</tspan><tspan x="60" y="0" class="st6" style="font-size:21px;">o</tspan><tspan x="73" y="0" class="st6" style="font-size:21px;"> </tspan><tspan x="79" y="0" class="st6" style="font-size:21px;">e</tspan><tspan x="91" y="0" class="st6" style="font-size:21px;">d</tspan><tspan x="104" y="0" class="st6" style="font-size:21px;">i</tspan><tspan x="108" y="0" class="st6" style="font-size:21px;">t</tspan><tspan x="116" y="0" class="st6" style="font-size:21px;"> </tspan><tspan x="123" y="0" class="st6" style="font-size:21px;">M</tspan><tspan x="141" y="0" class="st6" style="font-size:21px;">a</tspan><tspan x="153" y="0" class="st6" style="font-size:21px;">s</tspan><tspan x="163" y="0" class="st6" style="font-size:21px;">t</tspan><tspan x="170.9" y="0" class="st6" style="font-size:21px;">e</tspan><tspan x="182.9" y="0" class="st6" style="font-size:21px;">r</tspan><tspan x="190.9" y="0" class="st6" style="font-size:21px;"> </tspan><tspan x="196.9" y="0" class="st6" style="font-size:21px;">t</tspan><tspan x="204.9" y="0" class="st6" style="font-size:21px;">e</tspan><tspan x="216.9" y="0" class="st6" style="font-size:21px;">x</tspan><tspan x="227.9" y="0" class="st6" style="font-size:21px;">t</tspan><tspan x="235.9" y="0" class="st6" style="font-size:21px;"> </tspan><tspan x="242.9" y="0" class="st6" style="font-size:21px;">s</tspan><tspan x="252.9" y="0" class="st6" style="font-size:21px;">t</tspan><tspan x="260.9" y="0" class="st6" style="font-size:21px;">y</tspan><tspan x="272.9" y="0" class="st6" style="font-size:21px;">le</tspan><tspan x="288.9" y="0" class="st6" style="font-size:21px;">s</tspan></text>
		</g>
		<g class="st3">
			<text transform="matrix(1 0 0 1 108.7 -57.0984)" class="st4" style="font-size:18px;">!</text>
		</g>
		<g class="st3">
			<text transform="matrix(1 0 0 1 122.7 -57.0984)"><tspan x="0" y="0" class="st6" style="font-size:18px;">S</tspan><tspan x="11" y="0" class="st6" style="font-size:18px;">e</tspan><tspan x="22" y="0" class="st6" style="font-size:18px;">c</tspan><tspan x="32" y="0" class="st6" style="font-size:18px;">o</tspan><tspan x="43" y="0" class="st6" style="font-size:18px;">n</tspan><tspan x="53" y="0" class="st6" style="font-size:18px;">d</tspan><tspan x="64" y="0" class="st6" style="font-size:18px;"> </tspan><tspan x="70" y="0" class="st6" style="font-size:18px;">l</tspan><tspan x="74" y="0" class="st6" style="font-size:18px;">e</tspan><tspan x="85" y="0" class="st6" style="font-size:18px;">v</tspan><tspan x="95" y="0" class="st6" style="font-size:18px;">e</tspan><tspan x="106" y="0" class="st6" style="font-size:18px;">l</tspan></text>
		</g>
		<g class="st3">
			<text transform="matrix(1 0 0 1 135.7 -36.0984)" class="st4" style="font-size:15px;">!</text>
		</g>
		<g class="st3">
			<text transform="matrix(1 0 0 1 149.7 -36.0984)"><tspan x="0" y="0" class="st6" style="font-size:15px;">T</tspan><tspan x="9" y="0" class="st6" style="font-size:15px;">h</tspan><tspan x="18" y="0" class="st6" style="font-size:15px;">i</tspan><tspan x="21" y="0" class="st6" style="font-size:15px;">r</tspan><tspan x="27" y="0" class="st6" style="font-size:15px;">d</tspan><tspan x="36" y="0" class="st6" style="font-size:15px;"> </tspan><tspan x="41" y="0" class="st6" style="font-size:15px;">l</tspan><tspan x="44.1" y="0" class="st6" style="font-size:15px;">e</tspan><tspan x="53.1" y="0" class="st6" style="font-size:15px;">v</tspan><tspan x="61.1" y="0" class="st6" style="font-size:15px;">e</tspan><tspan x="70.1" y="0" class="st6" style="font-size:15px;">l</tspan></text>
		</g>
		<g class="st3">
			<text transform="matrix(1 0 0 1 162.7 -17.0984)" class="st4 st5">!</text>
		</g>
		<g class="st3">
			<text transform="matrix(1 0 0 1 176.7 -17.0984)"><tspan x="0" y="0" class="st6 st5">F</tspan><tspan x="8" y="0" class="st6 st5">o</tspan><tspan x="17" y="0" class="st6 st5">u</tspan><tspan x="25" y="0" class="st6 st5">r</tspan><tspan x="30" y="0" class="st6 st5">t</tspan><tspan x="35" y="0" class="st6 st5">h</tspan><tspan x="43" y="0" class="st6 st5" style="letter-spacing:-1;"> </tspan><tspan x="46.1" y="0" class="st6 st5">l</tspan><tspan x="49.1" y="0" class="st6 st5">e</tspan><tspan x="57.1" y="0" class="st6 st5">v</tspan><tspan x="65.1" y="0" class="st6 st5">e</tspan><tspan x="73.1" y="0" class="st6 st5">l</tspan></text>
		</g>
		<g class="st3">
			<text transform="matrix(1 0 0 1 189.7 0.9016)" class="st4 st5">!</text>
		</g>
		<g class="st3">
			<text transform="matrix(1 0 0 1 203.7 0.9016)"><tspan x="0" y="0" class="st6 st5">F</tspan><tspan x="8" y="0" class="st6 st5">i</tspan><tspan x="11" y="0" class="st6 st5">f</tspan><tspan x="16" y="0" class="st6 st5">t</tspan><tspan x="21" y="0" class="st6 st5">h</tspan><tspan x="29" y="0" class="st6 st5"> </tspan><tspan x="33" y="0" class="st6 st5">l</tspan><tspan x="36" y="0" class="st6 st5">e</tspan><tspan x="44" y="0" class="st6 st5">v</tspan><tspan x="52" y="0" class="st6 st5">e</tspan><tspan x="60" y="0" class="st6 st5">l</tspan></text>
		</g>
	</g>
	<g class="st1">
		<defs>
			<rect id="SVGID_3_" x="70" y="-108" width="705" height="307"/>
		</defs>
		<clipPath id="SVGID_4_">
			<use xlink:href="#SVGID_3_"  style="overflow:visible;"/>
		</clipPath>
		<g class="st7">
			<text transform="matrix(1 0 0 1 601.4454 185.997)"><tspan x="0" y="0" class="st8" style="font-family:'Metropolis-SemiBold'; font-size:8px;">B</tspan><tspan x="6" y="0" class="st8" style="font-family:'Metropolis-SemiBold'; font-size:8px;">r</tspan><tspan x="9" y="0" class="st8" style="font-family:'Metropolis-SemiBold'; font-size:8px;">a</tspan><tspan x="14" y="0" class="st8" style="font-family:'Metropolis-SemiBold'; font-size:8px;">m</tspan><tspan x="21" y="0" class="st8" style="font-family:'Metropolis-SemiBold'; font-size:8px;">s</tspan><tspan x="25" y="0" class="st8" style="font-family:'Metropolis-SemiBold'; font-size:8px;">o</tspan><tspan x="30" y="0" class="st8" style="font-family:'Metropolis-SemiBold'; font-size:8px;">n</tspan></text>
		</g>
		<g class="st7">
			<text transform="matrix(1 0 0 1 638.4454 185.997)"><tspan x="0" y="0" class="st8" style="font-family:'Metropolis-SemiBold'; font-size:8px;">P</tspan><tspan x="5" y="0" class="st8" style="font-family:'Metropolis-SemiBold'; font-size:8px;">r</tspan><tspan x="8" y="0" class="st8" style="font-family:'Metropolis-SemiBold'; font-size:8px;">o</tspan><tspan x="13" y="0" class="st8" style="font-family:'Metropolis-SemiBold'; font-size:8px;">d</tspan><tspan x="18" y="0" class="st8" style="font-family:'Metropolis-SemiBold'; font-size:8px;">u</tspan><tspan x="23" y="0" class="st8" style="font-family:'Metropolis-SemiBold'; font-size:8px;">c</tspan><tspan x="27" y="0" class="st8" style="font-family:'Metropolis-SemiBold'; font-size:8px;">t</tspan><tspan x="30" y="0" class="st8" style="font-family:'Metropolis-SemiBold'; font-size:8px;">i</tspan><tspan x="32" y="0" class="st8" style="font-family:'Metropolis-SemiBold'; font-size:8px; letter-spacing:-1;">o</tspan><tspan x="36" y="0" class="st8" style="font-family:'Metropolis-SemiBold'; font-size:8px;">n</tspan><tspan x="41" y="0" class="st8" style="font-family:'Metropolis-SemiBold'; font-size:8px;">s</tspan><tspan x="45" y="0" class="st8" style="font-family:'Metropolis-SemiBold'; font-size:8px;"> </tspan><tspan x="47.1" y="0" class="st8" style="font-family:'Metropolis-SemiBold'; font-size:8px;">I</tspan><tspan x="49.1" y="0" class="st8" style="font-family:'Metropolis-SemiBold'; font-size:8px;">n</tspan><tspan x="53.1" y="0" class="st8" style="font-family:'Metropolis-SemiBold'; font-size:8px;">c</tspan><tspan x="57.1" y="0" class="st8" style="font-family:'Metropolis-SemiBold'; font-size:8px;">.</tspan></text>
		</g>
	</g>
</g>
<g id="Layer_2">
	<path class="st8" d="M102.4,29.5v-3h-1.6v17.3h1.6v-10c0-3.5,2.3-6.2,5-6.2c1,0,1.6,0.1,2.2,0.4l0.6-1.4c-0.9-0.5-1.5-0.6-2.7-0.6
		C105.3,26,103.4,27.3,102.4,29.5z"/>
	<path class="st8" d="M201.2,26c-2.8,0-5.3,1.4-6.4,3.7v-3.3h-1.6v17.3h1.6v-9.8c0-4,2.7-6.4,6.4-6.4c3.3,0,5.2,1.7,5.2,5.8v10.5
		h1.6V32.9C207.9,28.2,205,26,201.2,26z"/>
	<path class="st8" d="M148.3,26c-2.8,0-4.7,1.2-6,3.5c-1.1-2.3-3.3-3.5-5.6-3.5c-2.5,0-4.5,1.2-5.4,3.1v-2.7h-1.6v17.3h1.6V33.2
		c0-3.7,2.1-5.8,5.4-5.8c2.8,0,4.5,1.7,4.5,5.1v11.1h1.6V33c0-3.5,2.1-5.6,5.4-5.6c2.7,0,4.5,1.7,4.5,5v11.2h1.6V32.2
		C154.4,28.2,151.6,26,148.3,26z"/>
	<path class="st8" d="M163.9,33.7c-2.4-0.8-4.1-1.4-4.1-3.5c0-1.7,1.4-2.8,3.5-2.8c2.1,0,3.3,0.9,4.1,2.3l1.4-0.7
		c-1-1.8-2.7-3-5.4-3c-3,0-5.1,1.7-5.1,4.2c0,2.9,2,3.9,5.3,5c3.1,1,5,1.9,5,4.1c0,2.1-1.8,3.4-4.3,3.4c-2.8,0-4.8-1.3-5.7-3.5
		l-1.4,0.6c1.1,2.6,3.4,4.3,7.1,4.3c3.5,0,6-1.7,6-4.8C170.1,35.9,167.3,34.8,163.9,33.7z"/>
	<g>
		<g>
			<path class="st8" d="M181.6,26c-4.9,0-8.9,4-8.9,9.1c0,5.1,4,9.1,8.9,9.1c4.9,0,8.9-4,8.9-9.1C190.5,29.9,186.6,26,181.6,26z
				 M181.6,42.7c-4.2,0-7.2-3.3-7.2-7.7c0-4.3,3-7.7,7.2-7.7s7.2,3.3,7.2,7.7C188.9,39.4,185.8,42.7,181.6,42.7z"/>
		</g>
	</g>
	<g>
		<g>
			<path class="st8" d="M120.2,26c-2.9,0-5,1.1-6.7,3.6l1.2,0.8c1.3-2.1,3-3,5.5-3c3,0,4.8,1.5,4.8,5.3v0.7h-5.9
				c-3.6,0-6.8,1.6-6.8,5.3c0,3.6,3,5.5,6.7,5.5c2.7,0,4.8-1.1,5.9-2.7v2.3h1.6V32.6C126.7,28.1,124.2,26,120.2,26z M125.1,37.9
				c0,3.3-2.9,4.7-5.7,4.7c-3.1,0-5.3-1.2-5.3-4c0-2.9,2.6-3.9,5.4-3.9h5.6V37.9z"/>
		</g>
	</g>
	<path class="st8" d="M97.2,31.1L97.2,31.1c-0.5-1.1-1.1-2.1-2-2.9c-0.8-0.8-1.8-1.5-2.9-2c-1.1-0.5-2.3-0.7-3.6-0.7
		s-2.4,0.2-3.6,0.7c-1.1,0.5-2.1,1.1-2.9,2c-0.4,0.4-0.7,0.8-1,1.2V18.1h-1.7v16.6c0,1.2,0.2,2.4,0.7,3.6c0.5,1.1,1.1,2.1,2,2.9
		c0.8,0.8,1.8,1.5,2.9,2c1.1,0.5,2.3,0.7,3.6,0.7s2.4-0.2,3.6-0.7c1.1-0.5,2.1-1.1,2.9-2c0.8-0.8,1.5-1.8,2-2.9
		c0.5-1.1,0.7-2.3,0.7-3.6C98,33.5,97.7,32.3,97.2,31.1z M96.3,34.7c0,2-0.8,3.9-2.2,5.3c-1.4,1.4-3.3,2.2-5.3,2.2
		c-2,0-3.9-0.8-5.3-2.2c-1.4-1.4-2.2-3.3-2.2-5.3c0-2,0.8-3.9,2.2-5.3c1.4-1.4,3.3-2.2,5.3-2.2c2,0,3.9,0.8,5.3,2.2
		C95.5,30.8,96.3,32.7,96.3,34.7z"/>
	<g>
		<path class="st8" d="M92.9,58.7c0-0.9-0.2-1.8-0.5-2.6c-0.3-0.8-0.8-1.5-1.4-2.1c-0.6-0.6-1.3-1.1-2.1-1.4
			c-0.8-0.3-1.7-0.5-2.6-0.5s-1.8,0.2-2.6,0.5c-0.8,0.3-1.5,0.8-2.1,1.4c-0.6,0.6-1.1,1.3-1.4,2.1c-0.3,0.8-0.5,1.7-0.5,2.6v12h1.2
			v-8.2c0.2,0.3,0.5,0.6,0.7,0.9c0.6,0.6,1.3,1.1,2.1,1.4c0.8,0.3,1.7,0.5,2.6,0.5s1.8-0.2,2.6-0.5c0.8-0.3,1.5-0.8,2.1-1.4
			c0.6-0.6,1.1-1.3,1.4-2.1v0C92.7,60.5,92.9,59.6,92.9,58.7z M90.1,62.5c-1,1-2.4,1.6-3.8,1.6s-2.8-0.6-3.8-1.6
			c-1-1-1.6-2.4-1.6-3.8c0-1.4,0.6-2.8,1.6-3.8c1-1,2.4-1.6,3.8-1.6s2.8,0.6,3.8,1.6c1,1,1.6,2.4,1.6,3.8
			C91.7,60.1,91.1,61.5,90.1,62.5z"/>
	</g>
	<path class="st8" d="M94.9,51.9h1.2v2.2c0.8-1.5,2.1-2.5,3.8-2.5c0.9,0,1.3,0.1,1.9,0.4l-0.4,1c-0.4-0.2-0.8-0.3-1.6-0.3
		c-2,0-3.7,1.9-3.7,4.5v7.3h-1.2V51.9z"/>
	<path class="st8" d="M101.9,58.2c0-3.7,2.9-6.6,6.5-6.6c3.6,0,6.5,2.9,6.5,6.6c0,3.7-2.9,6.6-6.5,6.6
		C104.8,64.9,101.9,62,101.9,58.2z M113.7,58.2c0-3.2-2.2-5.6-5.3-5.6c-3.1,0-5.3,2.4-5.3,5.6s2.2,5.6,5.3,5.6
		C111.5,63.8,113.7,61.4,113.7,58.2z"/>
	<path class="st8" d="M132.4,59.8v-7.9h1.2v7.7c0,3,1.3,4.2,3.8,4.2c2.7,0,4.6-1.8,4.6-4.7v-7.2h1.2v12.6H142v-2.4
		c-0.8,1.7-2.6,2.7-4.7,2.7C134.4,64.9,132.4,63.3,132.4,59.8z"/>
	<path class="st8" d="M145.6,58.2c0-3.7,2.8-6.6,6.4-6.6c1.9,0,3.5,0.6,4.7,1.9l-0.8,0.7c-1-1.1-2.2-1.6-3.9-1.6
		c-3.1,0-5.2,2.4-5.2,5.6s2.1,5.6,5.1,5.6c1.9,0,3.4-0.7,4.3-1.8l0.8,0.7c-1.2,1.4-3,2.1-5.2,2.1C148.3,64.9,145.6,62,145.6,58.2z"
		/>
	<path class="st8" d="M158.9,53v-1h1v-3.1h1.2v3.1h3.3v1h-3.3v8.8c0,1.2,0.4,2,1.6,2c0.6,0,1.2-0.3,1.6-0.6l0.6,0.9
		c-0.6,0.5-1.4,0.8-2.2,0.8c-1.7,0-2.8-1.2-2.8-2.9v-9H158.9z"/>
	<path class="st8" d="M166.4,49.6c0-0.6,0.5-1,1-1c0.5,0,1,0.4,1,1c0,0.6-0.5,1-1,1C166.9,50.6,166.4,50.2,166.4,49.6z M166.8,51.9
		h1.2v12.6h-1.2V51.9z"/>
	<path class="st8" d="M170.3,58.2c0-3.7,2.9-6.6,6.5-6.6c3.6,0,6.5,2.9,6.5,6.6c0,3.7-2.9,6.6-6.5,6.6
		C173.2,64.9,170.3,62,170.3,58.2z M182.1,58.2c0-3.2-2.2-5.6-5.3-5.6s-5.3,2.4-5.3,5.6s2.2,5.6,5.3,5.6S182.1,61.4,182.1,58.2z"/>
	<path class="st8" d="M185.7,51.9h1.2v2.4c0.8-1.7,2.6-2.7,4.7-2.7c2.7,0,4.9,1.6,4.9,5.1v7.9h-1.2v-7.7c0-2.9-1.4-4.2-3.8-4.2
		c-2.7,0-4.6,1.8-4.6,4.7v7.2h-1.2V51.9z"/>
	<path class="st8" d="M198.4,61.7l1-0.4c0.7,1.6,2.1,2.5,4.2,2.5c1.9,0,3.2-0.9,3.2-2.5c0-1.6-1.3-2.3-3.7-3
		c-2.4-0.8-3.8-1.5-3.8-3.7c0-1.8,1.5-3.1,3.7-3.1c2,0,3.3,0.9,4,2.2l-1,0.5c-0.6-1-1.5-1.7-3-1.7c-1.5,0-2.6,0.8-2.6,2.1
		c0,1.5,1.2,1.9,3,2.5c2.5,0.8,4.6,1.6,4.6,4.1c0,2.3-1.8,3.5-4.4,3.5C200.8,64.9,199.2,63.6,198.4,61.7z"/>
	<g>
		<path class="st8" d="M116.5,58.3c0,0.9,0.2,1.8,0.5,2.6c0.3,0.8,0.8,1.5,1.4,2.1c0.6,0.6,1.3,1.1,2.1,1.4c0.8,0.3,1.7,0.5,2.6,0.5
			c0.9,0,1.8-0.2,2.6-0.5c0.8-0.3,1.5-0.8,2.1-1.4c0.6-0.6,1.1-1.3,1.4-2.1c0.3-0.8,0.5-1.7,0.5-2.6v-9.5h-1.2v5.7
			c-0.2-0.3-0.5-0.6-0.7-0.9c-0.6-0.6-1.3-1.1-2.1-1.4c-0.8-0.3-1.7-0.5-2.6-0.5c-0.9,0-1.8,0.2-2.6,0.5c-0.8,0.3-1.5,0.8-2.1,1.4
			c-0.6,0.6-1.1,1.3-1.4,2.1v0C116.6,56.6,116.5,57.4,116.5,58.3z M119.3,54.5c1-1,2.4-1.6,3.8-1.6s2.8,0.6,3.8,1.6
			c1,1,1.6,2.4,1.6,3.8c0,1.4-0.6,2.8-1.6,3.8c-1,1-2.4,1.6-3.8,1.6s-2.8-0.6-3.8-1.6c-1-1-1.6-2.4-1.6-3.8
			C117.7,56.9,118.2,55.5,119.3,54.5z"/>
	</g>
	<g>
		<path class="st8" d="M45.5,27.1c-2.1,0-4,0.8-5.5,2.3c-1.5,1.5-2.3,3.4-2.3,5.5c0,2.1,0.8,4,2.3,5.5c1.5,1.5,3.4,2.3,5.5,2.3
			s4-0.8,5.5-2.3c1.5-1.5,2.3-3.4,2.3-5.5c0-2.1-0.8-4-2.3-5.5C49.5,27.9,47.5,27.1,45.5,27.1z M45.5,61.9c2.1,0,4-0.8,5.5-2.3
			c1.5-1.5,2.3-3.4,2.3-5.5c0-2.1-0.8-4-2.3-5.5c-1.5-1.5-3.4-2.3-5.5-2.3s-4,0.8-5.5,2.3c-1.5,1.5-2.3,3.4-2.3,5.5
			c0,2.1,0.8,4,2.3,5.5C41.4,61.1,43.4,61.9,45.5,61.9z M45.5,18C30.8,18,19,29.9,19,44.5c0,11.3,7.1,20.9,17,24.7c0,0,0,0,0,0V54.1
			c0-1.3,0.3-2.5,0.7-3.7c0.5-1.1,1.2-2.2,2-3c0.9-0.9,1.9-1.6,3-2c1.2-0.5,2.4-0.7,3.7-0.7s2.5,0.3,3.7,0.7c1.1,0.5,2.2,1.2,3,2
			c0.9,0.9,1.6,1.9,2,3c0.5,1.2,0.7,2.4,0.7,3.7c0,1.3-0.3,2.5-0.7,3.7v0c-0.5,1.1-1.2,2.2-2,3c-0.9,0.9-1.9,1.6-3,2
			c-1.2,0.5-2.4,0.7-3.7,0.7s-2.5-0.3-3.7-0.7c-1.1-0.5-2.2-1.2-3-2c-0.4-0.4-0.7-0.8-1-1.2l0,10.2c2.5,0.8,5.1,1.2,7.8,1.2
			C60.1,71,72,59.1,72,44.5S60.1,18,45.5,18z M54.2,38.6c-0.5,1.1-1.2,2.2-2,3c-0.9,0.9-1.9,1.6-3,2c-1.2,0.5-2.4,0.7-3.7,0.7
			s-2.5-0.3-3.7-0.7c-1.1-0.5-2.2-1.2-3-2c-0.9-0.9-1.6-1.9-2-3c-0.5-1.2-0.7-2.4-0.7-3.7V19.8c0.6-0.2,1.2-0.4,1.7-0.6v10.2
			c0.3-0.4,0.7-0.9,1-1.2c0.9-0.9,1.9-1.6,3-2c1.2-0.5,2.4-0.7,3.7-0.7s2.5,0.3,3.7,0.7c1.1,0.5,2.2,1.2,3,2c0.9,0.9,1.6,1.9,2,3v0
			c0.5,1.2,0.7,2.4,0.7,3.7C55,36.2,54.7,37.4,54.2,38.6z"/>
	</g>
</g>
</svg>
